<svg width="48" height="48" viewBox="0 0 48 48" fill="none" xmlns="http://www.w3.org/2000/svg">
<path d="M41.1429 35.9314C37.16 35.907 33.2553 34.8239 29.8291 32.793C26.4029 30.7621 23.5784 27.8565 21.6453 24.3741C19.7122 20.8918 18.7401 16.958 18.8285 12.976C18.9169 8.9941 20.0628 5.10733 22.1486 1.71423C16.6532 2.67897 11.7137 5.65484 8.29232 10.0621C4.87095 14.4694 3.21271 19.9925 3.64063 25.5555C4.06856 31.1185 6.55199 36.323 10.6072 40.1552C14.6623 43.9873 19.9989 46.1727 25.5771 46.2857C29.3936 46.2954 33.1478 45.3188 36.4757 43.4506C39.8036 41.5824 42.5923 38.886 44.5714 35.6228C43.4377 35.8101 42.2918 35.9133 41.1429 35.9314V35.9314Z" stroke="#F2FBFF" stroke-opacity="0.7" stroke-width="3.42857" stroke-linecap="round" stroke-linejoin="round"/>
</svg>
