<svg width="48" height="48" viewBox="0 0 48 48" fill="none" xmlns="http://www.w3.org/2000/svg">
<path d="M14.5715 39.4286L16.2858 36" stroke="#F2FBFF" stroke-opacity="0.7" stroke-width="3.42857" stroke-linecap="round" stroke-linejoin="round"/>
<path d="M30 39.4286L31.7143 36" stroke="#F2FBFF" stroke-opacity="0.7" stroke-width="3.42857" stroke-linecap="round" stroke-linejoin="round"/>
<path d="M20.5715 46.2857L22.2858 42.8571" stroke="#F2FBFF" stroke-opacity="0.7" stroke-width="3.42857" stroke-linecap="round" stroke-linejoin="round"/>
<path d="M5.14282 46.2857L6.85711 42.8571" stroke="#F2FBFF" stroke-opacity="0.7" stroke-width="3.42857" stroke-linecap="round" stroke-linejoin="round"/>
<path d="M36 46.2857L37.7143 42.8571" stroke="#F2FBFF" stroke-opacity="0.7" stroke-width="3.42857" stroke-linecap="round" stroke-linejoin="round"/>
<path d="M37.7144 27.4286C38.9326 27.4321 40.1375 27.176 41.249 26.6772C42.3604 26.1784 43.3527 25.4485 44.1598 24.536C44.9669 23.6235 45.5702 22.5494 45.9296 21.3854C46.2889 20.2214 46.396 18.9942 46.2437 17.7855C46.0914 16.5769 45.6832 15.4146 45.0463 14.3761C44.4094 13.3376 43.5585 12.4468 42.5502 11.7631C41.542 11.0794 40.3996 10.6184 39.1992 10.411C37.9987 10.2035 36.7679 10.2543 35.5886 10.56C34.9033 8.01058 33.3964 5.75831 31.3013 4.15207C29.2063 2.54584 26.64 1.67529 24.0001 1.67529C21.3601 1.67529 18.7939 2.54584 16.6988 4.15207C14.6038 5.75831 13.0968 8.01058 12.4115 10.56C11.2323 10.2543 10.0014 10.2035 8.80099 10.411C7.60056 10.6184 6.45815 11.0794 5.4499 11.7631C4.44166 12.4468 3.59073 13.3376 2.95385 14.3761C2.31698 15.4146 1.90878 16.5769 1.75647 17.7855C1.60416 18.9942 1.71123 20.2214 2.07056 21.3854C2.42989 22.5494 3.03321 23.6235 3.84031 24.536C4.64741 25.4485 5.63975 26.1784 6.75117 26.6772C7.8626 27.176 9.06757 27.4321 10.2858 27.4286H37.7144Z" stroke="#F2FBFF" stroke-opacity="0.7" stroke-width="3.42857" stroke-linecap="round" stroke-linejoin="round"/>
</svg>
